#Comment line ignore any data following # character 
#Hierarchical Translation and Rotation (.htr) file 
[Header]	
#Header keywords are followed by a single value 
FileType HTR		#Single word string
DataType HTRS		#Translation followed by rotation and scale data
FileVersion 1		#integer
NumSegments 23		#integer
NumFrames 4		#integer
DataFrameRate 30		#integer, data frame rate in this file
EulerRotationOrder ZYX
CalibrationUnits mm
RotationUnits Degrees
GlobalAxisofGravity Y
BoneLengthAxis Y
ScaleFactor 1.00
[SegmentNames&Hierarchy]
#CHILD	PARENT
MASTER GLOBAL
weapon MASTER
arm_lock_bottom_part1 weapon
arm_lock_bottom_part2 weapon
arm_lock_bottom_part3 weapon
arm_lock_bottom_part4 weapon
arm_lock_top_part1 weapon
arm_lock_top_part2 weapon
arm_lock_top_part3 weapon
front_lower_left_part1 weapon
front_lower_right_part1 weapon
front_top_left_part weapon
front_top_right_part1 weapon
scope_part1 weapon
scope_part2 weapon
front_lower_left_part2 front_lower_left_part1
front_lower_left_part3 front_lower_left_part2
front_lower_right_part2 front_lower_right_part1
front_lower_right_part3 front_lower_right_part2
front_top_left_part2 front_top_left_part
front_top_left_part3 front_top_left_part2
front_top_right_part2 front_top_right_part1
front_top_right_part3 front_top_right_part2
[BasePosition]
#SegmentName Tx, Ty, Tz, Rx, Ry, Rz, BoneLength
MASTER 0.000000 0.000000 0.000000 -90.000000 0.000000 0.000000 10.000000 
weapon 0.000000 0.000000 0.000000 0.000000 0.000000 0.000000 10.000000 
arm_lock_bottom_part1 0.000000 0.000000 0.000000 0.000000 0.000000 0.000000 10.000000 
arm_lock_bottom_part2 0.000000 0.000000 0.000000 0.000000 0.000000 0.000000 10.000000 
arm_lock_bottom_part3 0.000000 0.000000 0.000000 0.000000 0.000000 0.000000 10.000000 
arm_lock_bottom_part4 0.000000 0.000000 0.000000 0.000000 0.000000 0.000000 10.000000 
arm_lock_top_part1 0.000000 0.000000 0.000000 0.000000 0.000000 0.000000 10.000000 
arm_lock_top_part2 0.000000 0.000000 0.000000 0.000000 0.000000 0.000000 10.000000 
arm_lock_top_part3 0.000000 0.000000 0.000000 0.000000 0.000000 0.000000 10.000000 
front_lower_left_part1 0.000000 0.000000 0.000000 0.000000 0.000000 0.000000 10.000000 
front_lower_right_part1 0.000000 0.000000 0.000000 0.000000 0.000000 0.000000 10.000000 
front_top_left_part 0.000000 0.000000 0.000000 0.000000 0.000000 0.000000 10.000000 
front_top_right_part1 0.000000 0.000000 0.000000 0.000000 0.000000 0.000000 10.000000 
scope_part1 0.000000 0.000000 0.000000 0.000000 0.000000 0.000000 10.000000 
scope_part2 0.000000 0.000000 0.000000 0.000000 0.000000 0.000000 10.000000 
front_lower_left_part2 0.000000 0.000000 0.000000 0.000000 0.000000 0.000000 10.000000 
front_lower_left_part3 0.000000 0.000000 0.000000 0.000000 0.000000 0.000000 10.000000 
front_lower_right_part2 0.000000 0.000000 0.000000 0.000000 0.000000 0.000000 10.000000 
front_lower_right_part3 0.000000 0.000000 0.000000 0.000000 0.000000 0.000000 10.000000 
front_top_left_part2 0.000000 0.000000 0.000000 0.000000 0.000000 0.000000 10.000000 
front_top_left_part3 0.000000 0.000000 0.000000 0.000000 0.000000 0.000000 10.000000 
front_top_right_part2 0.000000 0.000000 0.000000 0.000000 0.000000 0.000000 10.000000 
front_top_right_part3 0.000000 0.000000 0.000000 0.000000 0.000000 0.000000 10.000000 
#Beginning of Data. Separated by tabs
#Fr	Tx	Ty	Tz	Rx	Ry	Rz	SF
[MASTER]
29 0.000000 -0.000019 0.000002 0.002458 -0.000000 0.000000 0.000019
30 0.000000 -0.000019 0.000002 0.002458 -0.000000 0.000000 0.000019
31 0.000000 -0.000019 0.000002 0.002458 -0.000000 0.000000 0.000019
32 0.000000 -0.000019 0.000002 0.002458 -0.000000 0.000000 0.000019
[weapon]
29 10.182476 -168.977890 -13.084106 -0.002473 -0.000000 -0.000020 169.789291
30 10.182457 -168.977844 -13.084106 -0.002473 -0.000000 -0.000020 169.789246
31 10.182476 -168.977936 -13.084106 -0.002473 -0.000000 -0.000020 169.789337
32 10.182457 -168.977844 -13.084106 -0.002473 -0.000000 -0.000020 169.789246
[arm_lock_bottom_part1]
29 -48.820000 98.566170 -83.498993 179.999985 0.000004 9.388626 138.096939
30 -48.820000 98.566208 -83.498993 179.999985 0.000004 9.388626 138.096970
31 -48.820019 98.566170 -83.498993 179.999985 0.000004 9.388626 138.096939
32 -48.820000 98.566208 -83.498993 179.999985 0.000004 9.388626 138.096970
[arm_lock_bottom_part2]
29 -49.022751 58.782005 -78.526535 -179.999985 -0.000001 6.576765 109.658424
30 -49.022766 58.782005 -78.526535 -179.999985 -0.000001 6.576765 109.658440
31 -49.022751 58.781967 -78.526535 -179.999985 -0.000001 6.576765 109.658409
32 -49.022766 58.782005 -78.526535 -179.999985 -0.000001 6.576765 109.658440
[arm_lock_bottom_part3]
29 -51.266422 -16.798210 -66.920395 -179.999985 -0.000001 4.326176 85.957924
30 -51.266422 -16.798210 -66.920395 -179.999985 -0.000001 4.326176 85.957924
31 -51.266422 -16.798210 -66.920395 -179.999985 -0.000001 4.326176 85.957924
32 -51.266422 -16.798210 -66.920395 -179.999985 -0.000001 4.326176 85.957924
[arm_lock_bottom_part4]
29 -40.078068 -93.503113 -59.330063 -179.999985 -0.000000 1.322129 117.767311
30 -40.078102 -93.503113 -59.330063 -179.999985 -0.000000 1.322129 117.767326
31 -40.078083 -93.503098 -59.330063 -179.999985 -0.000000 1.322129 117.767311
32 -40.078102 -93.503113 -59.330063 -179.999985 -0.000000 1.322129 117.767326
[arm_lock_top_part1]
29 -47.532539 61.554489 78.379364 0.000000 -0.000000 -9.999999 110.415680
30 -47.532558 61.554489 78.379364 0.000000 -0.000000 -9.999999 110.415680
31 -47.532558 61.554451 78.379364 0.000000 -0.000000 -9.999999 110.415672
32 -47.532558 61.554489 78.379364 0.000000 -0.000000 -9.999999 110.415680
[arm_lock_top_part2]
29 -45.622673 13.709908 63.393555 0.000000 -0.000000 -7.722126 79.297745
30 -45.622673 13.709908 63.393555 0.000000 -0.000000 -7.722126 79.297745
31 -45.622673 13.709908 63.393555 0.000000 -0.000000 -7.722126 79.297745
32 -45.622673 13.709908 63.393555 0.000000 -0.000000 -7.722126 79.297745
[arm_lock_top_part3]
29 -43.788525 -73.747231 72.061615 0.000000 0.000000 -4.533067 112.022163
30 -43.788544 -73.747208 72.061615 0.000000 0.000000 -4.533067 112.022163
31 -43.788544 -73.747208 72.061615 0.000000 0.000000 -4.533067 112.022163
32 -43.788544 -73.747208 72.061615 0.000000 0.000000 -4.533067 112.022163
[front_lower_left_part1]
29 -46.798553 475.070984 -43.538895 0.000000 0.000003 -0.000000 479.351837
30 -46.798553 475.070984 -43.538895 0.000000 0.000003 -0.000000 479.351837
31 -46.798534 475.070831 -43.538815 0.000000 0.000003 -0.000000 479.351654
32 -46.798553 475.070984 -43.538895 0.000000 0.000003 -0.000000 479.351837
[front_lower_right_part1]
29 26.433447 475.070984 -43.538895 0.000000 -0.000000 -0.000000 477.793671
30 26.433468 475.070984 -43.538742 0.000000 -0.000000 -0.000000 477.793671
31 26.433468 475.070984 -43.538895 0.000000 -0.000000 -0.000000 477.793671
32 26.433468 475.070984 -43.538742 0.000000 -0.000000 -0.000000 477.793671
[front_top_left_part]
29 -47.897205 494.788910 7.030945 -0.000000 0.000003 -0.000001 497.151520
30 -47.897224 494.788910 7.030945 -0.000000 0.000003 -0.000001 497.151520
31 -47.897205 494.788849 7.030945 -0.000000 0.000003 -0.000001 497.151459
32 -47.897224 494.788910 7.030945 -0.000000 0.000003 -0.000001 497.151520
[front_top_right_part1]
29 27.532120 494.788910 7.031097 0.000000 -0.000000 -0.000000 495.604218
30 27.532139 494.788910 7.031097 0.000000 -0.000000 -0.000000 495.604218
31 27.532177 494.788757 7.031097 0.000000 -0.000000 -0.000000 495.604065
32 27.532139 494.788910 7.031097 0.000000 -0.000000 -0.000000 495.604218
[scope_part1]
29 -10.754299 87.338936 156.453094 -4.905725 -1.306848 0.112272 179.502960
30 -10.754299 87.338936 156.453094 -4.905828 -1.347926 0.115735 179.502960
31 -10.754318 87.338936 156.453094 -4.905921 -1.384842 0.118863 179.502960
32 -10.754299 87.338936 156.453094 -4.906006 -1.417062 0.121640 179.502960
[scope_part2]
29 -10.754280 82.597351 156.859894 -4.905581 1.214527 -0.104185 177.603500
30 -10.754299 82.597351 156.859894 -4.905670 1.252678 -0.107523 177.603500
31 -10.754280 82.597351 156.859894 -4.905676 1.286972 -0.110380 177.603500
32 -10.754299 82.597351 156.859894 -4.905750 1.316946 -0.113060 177.603500
[front_lower_left_part2]
29 -55.193516 141.618484 32.268444 0.000000 -0.000000 1.699468 155.381378
30 -55.193516 141.618484 32.268444 0.000000 -0.000000 1.790511 155.381378
31 -55.193535 141.618408 32.268444 0.000000 -0.000000 1.881242 155.381317
32 -55.193516 141.618484 32.268444 0.000000 -0.000000 1.971515 155.381378
[front_lower_left_part3]
29 -10.943775 108.509521 -11.124877 33.809086 -14.924756 -15.182489 109.625931
30 -10.943755 108.509521 -11.124877 33.829956 -14.872242 -15.263588 109.625931
31 -10.943737 108.509590 -11.124877 33.850239 -14.820743 -15.342944 109.625999
32 -10.943755 108.509521 -11.124877 33.869732 -14.771311 -15.419219 109.625931
[front_lower_right_part2]
29 55.193707 141.618408 32.268291 0.000000 0.000000 -0.808476 155.381348
30 55.193707 141.618347 32.268291 0.000000 0.000000 -0.851910 155.381271
31 55.193748 141.618408 32.268291 0.000000 0.000000 -0.895030 155.381363
32 55.193707 141.618347 32.268291 0.000000 0.000000 -0.937993 155.381271
[front_lower_right_part3]
29 10.943909 108.509369 -11.124877 33.604729 15.427331 14.401772 109.625793
30 10.943909 108.509369 -11.124877 33.615482 15.401358 14.442269 109.625793
31 10.943870 108.509445 -11.124877 33.625828 15.376382 14.481378 109.625862
32 10.943870 108.509369 -11.124725 33.635777 15.352343 14.518750 109.625778
[front_top_left_part2]
29 -39.771080 137.493896 54.685669 0.000000 -0.000003 0.000001 153.221512
30 -39.643612 137.494110 54.678497 0.000000 -0.000003 0.000001 153.186111
31 -39.519653 137.494354 54.671783 0.000000 -0.000003 0.000001 153.151901
32 -39.399834 137.494659 54.665070 0.000000 -0.000003 0.000001 153.118896
[front_top_left_part3]
29 -28.216457 149.656830 49.959717 -25.936031 -3.207848 -65.100327 160.278839
30 -28.216438 149.656982 49.959717 -25.938524 -3.186064 -65.055382 160.278976
31 -28.216457 149.656738 49.959717 -25.940735 -3.166465 -65.015045 160.278763
32 -28.216457 149.657059 49.959564 -25.942717 -3.149352 -64.979668 160.279007
[front_top_right_part2]
29 39.578854 137.481613 55.003662 0.000000 0.000000 -0.000020 153.274551
30 39.442673 137.481369 55.011139 0.000000 0.000000 -0.000020 153.241882
31 39.310223 137.481155 55.018463 0.000000 0.000000 -0.000020 153.210281
32 39.182125 137.480759 55.025482 0.000000 0.000000 -0.000020 153.179642
[front_top_right_part3]
29 28.216515 149.657135 49.959564 -25.901577 3.494201 65.690361 160.279083
30 28.216515 149.657135 49.959564 -25.903131 3.481434 65.664032 160.279083
31 28.216476 149.656982 49.959564 -25.904581 3.469894 65.640266 160.278946
32 28.216553 149.657135 49.959564 -25.905893 3.459880 65.619598 160.279099
